<svg xmlns="http://www.w3.org/2000/svg" xmlns:xlink="http://www.w3.org/1999/xlink" version="1.1" width="1000" height="1000" viewBox="0 0 1000 1000" xml:space="preserve">
<desc>Created with Fabric.js 3.5.0</desc>
<defs>
</defs>
<rect x="0" y="0" width="100%" height="100%" fill="#ffffff"/>
<g transform="matrix(25.1435 0 0 25.1435 500.0002 500.0002)" id="841261">
<path style="stroke: none; stroke-width: 1; stroke-dasharray: none; stroke-linecap: butt; stroke-dashoffset: 0; stroke-linejoin: miter; stroke-miterlimit: 4; is-custom-font: none; font-file-url: none; fill: rgb(242,153,74); fill-rule: nonzero; opacity: 1;" vector-effect="non-scaling-stroke" transform=" translate(-23.947, -23.9547)" d="m 8.25 42 l -2.1 -2.1 l 21 -21 q -1.1 -2.4 -0.5 -4.975 q 0.6 -2.575 2.85 -4.825 q 2.25 -2.2 5.45 -2.825 T 40.2 7.7 q 2.1 2.1 1.425 5.25 T 38.6 18.5 q -2.05 2.1 -4.575 2.75 q -2.525 0.65 -4.725 -0.3 l -3.35 3.35 l 15.6 15.6 l -2.1 2.1 l -15.6 -15.6 Z m 6.25 -17.55 L 8.55 18.5 Q 6 15.95 5.9 12.45 q -0.1 -3.5 2.3 -6.2 L 20.45 18.5 Z" stroke-linecap="round"/>
</g>
</svg>